<?xml version="1.0" encoding="UTF-8"?>
<svg width="1200pt" height="1200pt" version="1.1" viewBox="0 0 1200 1200" xmlns="http://www.w3.org/2000/svg">
 <g>
  <path fill="#828282" d="m600 707.81c-2.6523-0.011719-5.2734-0.58594-7.6875-1.6875l-364.88-150v308.81c0.035156 5.6406 1.875 11.121 5.25 15.641 3.3711 4.5195 8.1016 7.8438 13.5 9.4844 225 83.438 463.5 83.438 708.75 0 5.4141-1.6133 10.16-4.9297 13.539-9.457 3.375-4.5234 5.2031-10.02 5.2109-15.668v-309l-364.88 150c-2.7422 1.332-5.7656 1.9766-8.8125 1.875z"/>
  <path fill="#828282" d="m1166.8 876.75c-0.058594-10.234-2.9688-20.254-8.3984-28.93-5.4297-8.6758-13.172-15.668-22.352-20.195v-383.06l17.438-7.125 46.5-18.75-600-247.5-600 247.12 214.69 87.938 385.31 159 385.12-159 102.38-41.438v362.81c-9.1367 4.543-16.824 11.551-22.191 20.23-5.3672 8.6797-8.2031 18.688-8.1836 28.895-0.003906 11.852 3.7383 23.402 10.688 33l-18.75 101.44c-0.85938 4.3359 0.31641 8.8281 3.1875 12.188 2.7656 3.3828 6.8828 5.3711 11.25 5.4375h98.438c4.4336-0.007812 8.6328-2.0039 11.438-5.4375 2.832-3.3789 3.9375-7.8789 3-12.188l-18.75-101.44c6.6133-9.6875 9.8438-21.289 9.1875-33z"/>
 </g>
</svg>
